<svg height="512" viewBox="0 0 511.469 511.469" width="512" xmlns="http://www.w3.org/2000/svg"><path d="M331.454 107.96c85.787 25.127 148.444 104.392 148.444 198.303v111.169H32.57V306.263c0-93.577 62.213-172.61 147.53-198.031z" fill="#f7cf8f"/><path d="M452.184 374.579a5.592 5.592 0 01-5.592-5.592c0-11.186-6.545-21.48-16.675-26.228l-105.458-49.411a12.873 12.873 0 01-7.411-11.656V107.986l-122.626.22-14.321.026C94.784 133.653 32.57 212.686 32.57 306.263v111.169h447.328v-42.853zm-265.173-81.231l-64.391 30.17c-6.904 3.235-14.829-1.804-14.829-9.428v-7.826c0-69.366 34.191-130.733 86.631-168.202v143.63a12.875 12.875 0 01-7.411 11.656z" fill="#f5c374"/><path d="M214.507 109.604c0-9.501-7.702-17.203-17.203-17.203s-17.203 7.702-17.203 17.203v252.811h34.407V109.604zm116.947 0c0-9.501-7.702-17.203-17.203-17.203s-17.203 7.702-17.203 17.203v260.731h34.407z" fill="#f3b658"/><path d="M324.458 293.348a12.873 12.873 0 01-7.411-11.656l-.027-183.083c0-2.03.377-3.981 1.023-5.789a17.288 17.288 0 00-3.792-.419c-9.501 0-17.203 7.702-17.203 17.203v260.731h34.407v-73.709zM197.303 92.401c-.934 0-1.843.095-2.736.238a17.212 17.212 0 00-.165 2.261v187.334a12.865 12.865 0 01-7.391 11.113l-6.911 3.238v65.83h34.407V109.604c0-9.501-7.703-17.203-17.204-17.203z" fill="#f2a940"/><path d="M421.431 360.87l-121.696-57.02a4.667 4.667 0 01-2.687-4.227V97.401c0-10.858-8.802-19.661-19.661-19.661h-43.305c-10.858 0-19.661 8.802-19.661 19.661v202.222a4.669 4.669 0 01-2.687 4.227L90.038 360.87a8.963 8.963 0 00-5.16 8.117v48.445h341.713v-48.445a8.963 8.963 0 00-5.16-8.117z" fill="#f5c374"/><path d="M118.127 389.914a8.963 8.963 0 015.161-8.117l121.696-57.02a4.667 4.667 0 002.687-4.227V118.328c0-10.858 8.802-19.661 19.661-19.661h29.716v-1.266c0-10.858-8.802-19.661-19.661-19.661h-43.305c-10.858 0-19.661 8.802-19.661 19.661v202.222a4.667 4.667 0 01-2.687 4.227L90.038 360.87a8.963 8.963 0 00-5.16 8.117v48.445h33.249z" fill="#f3b658"/><path d="M489.814 433.728H21.655c-7.817 0-14.155-6.337-14.155-14.155v-10.84c0-7.817 6.337-14.155 14.155-14.155h468.159c7.817 0 14.155 6.337 14.155 14.155v10.84c0 7.818-6.338 14.155-14.155 14.155z" fill="#f3b658"/><path d="M489.814 387.079h-2.416v-80.816c0-53.854-20.076-105.326-56.529-144.936a7.501 7.501 0 00-11.037 10.159c33.897 36.833 52.566 84.698 52.566 134.778v80.816H434.09v-23.791a7.5 7.5 0 00-4.318-6.792l-90.819-42.553V118.243c21.086 7.353 40.665 18.167 58.317 32.233a7.464 7.464 0 004.669 1.635c2.205 0 4.39-.968 5.87-2.827a7.5 7.5 0 00-1.191-10.539c-20.68-16.48-43.826-28.807-68.851-36.695-3.2-9.937-12.531-17.148-23.518-17.148-4.144 0-8.05 1.031-11.484 2.842-3.903-10.221-13.804-17.502-25.38-17.502H234.08c-11.562 0-21.453 7.264-25.366 17.466a24.543 24.543 0 00-11.413-2.805c-11.106 0-20.521 7.367-23.621 17.471-41.561 13.367-78.83 39.797-105.321 74.791C40.04 214.574 25.07 259.217 25.07 306.263v80.816h-3.416C9.714 387.079 0 396.793 0 408.733v10.84c0 11.94 9.714 21.655 21.655 21.655h468.159c11.94 0 21.655-9.714 21.655-21.655v-10.84c0-11.94-9.715-21.654-21.655-21.654zM314.25 99.901c5.351 0 9.704 4.353 9.704 9.703v197.311l-19.407-9.093V109.604c0-5.35 4.353-9.703 9.703-9.703zM40.07 306.263c0-43.751 13.918-85.263 40.251-120.047 23.431-30.951 55.92-54.69 92.279-67.635v38.17a7.5 7.5 0 0015 0v-47.147c0-5.35 4.353-9.703 9.703-9.703 4.937 0 9.016 3.709 9.618 8.485v189.436l-19.321 9.053V188.714a7.5 7.5 0 00-15 0v125.19l-25.038 11.731a7.5 7.5 0 106.365 13.583l60.99-28.576c3.724-1.745 6.294-5.274 6.879-9.277.133-.56.212-1.141.212-1.741l-.085-202.222c0-6.706 5.455-12.161 12.161-12.161h43.305c6.706 0 12.161 5.455 12.161 12.161v202.222c0 4.699 2.75 9.024 7.005 11.019l122.538 57.415v19.022H92.378v-19.023l32.585-15.268a7.5 7.5 0 10-6.365-13.583l-36.903 17.291a7.5 7.5 0 00-4.318 6.792v23.791H40.07zm456.399 113.31a6.663 6.663 0 01-6.655 6.655H21.655A6.663 6.663 0 0115 419.573v-10.84a6.662 6.662 0 016.655-6.654h468.159a6.662 6.662 0 016.655 6.654z"/></svg>