<svg id="Capa_1" enable-background="new 0 0 511.469 511.469" height="512" viewBox="0 0 511.469 511.469" width="512" xmlns="http://www.w3.org/2000/svg"><g><g><g><path d="m331.454 107.96c85.787 25.127 148.444 104.392 148.444 198.303v111.169h-447.328v-22.853-88.316c0-93.577 62.213-172.61 147.53-198.031z" fill="#f7cf8f"/></g><path d="m452.184 374.579c-3.089 0-5.592-2.504-5.592-5.592 0-11.186-6.545-21.48-16.675-26.228l-105.458-49.411c-4.522-2.119-7.411-6.662-7.411-11.656v-173.706l-122.626.22-14.321.026c-85.317 25.421-147.531 104.454-147.531 198.031v88.316 22.853h64.001 11.219 338.801 33.307v-42.853zm-265.173-81.231-64.391 30.17c-6.904 3.235-14.829-1.804-14.829-9.428v-7.826c0-69.366 34.191-130.733 86.631-168.202v143.63c-.001 4.993-2.889 9.537-7.411 11.656z" fill="#f5c374"/><path d="m214.507 109.604c0-9.501-7.702-17.203-17.203-17.203-9.501 0-17.203 7.702-17.203 17.203v252.811h34.407v-252.811z" fill="#f3b658"/><path d="m331.454 109.604c0-9.501-7.702-17.203-17.203-17.203-9.501 0-17.203 7.702-17.203 17.203v260.731h34.407z" fill="#f3b658"/><path d="m324.458 293.348c-4.522-2.119-7.411-6.662-7.411-11.656l-.027-183.083c0-2.03.377-3.981 1.023-5.789-1.219-.274-2.49-.419-3.792-.419-9.501 0-17.203 7.702-17.203 17.203v260.731h34.407v-10.995-62.714z" fill="#f2a940"/><path d="m197.303 92.401c-.934 0-1.843.095-2.736.238-.098.742-.165 1.493-.165 2.261v187.334c-.201 4.778-3.034 9.072-7.391 11.113l-6.911 3.238v65.83h34.407v-14.704-238.107c0-9.501-7.703-17.203-17.204-17.203z" fill="#f2a940"/><path d="m421.431 360.87-121.696-57.02c-1.64-.768-2.687-2.416-2.687-4.227v-202.222c0-10.858-8.802-19.661-19.661-19.661h-43.305c-10.858 0-19.661 8.802-19.661 19.661v202.222c0 1.811-1.048 3.459-2.687 4.227l-121.696 57.02c-3.149 1.475-5.16 4.639-5.16 8.117v48.445h341.713v-48.445c0-3.478-2.011-6.642-5.16-8.117z" fill="#f5c374"/><g><path d="m118.127 389.914c0-3.478 2.011-6.641 5.161-8.117l121.696-57.02c1.64-.768 2.687-2.416 2.687-4.227v-202.222c0-10.858 8.802-19.661 19.661-19.661h29.716v-1.266c0-10.858-8.802-19.661-19.661-19.661h-43.305c-10.858 0-19.661 8.802-19.661 19.661v202.222c0 1.811-1.047 3.459-2.687 4.227l-121.696 57.02c-3.149 1.475-5.16 4.639-5.16 8.117v48.445h33.249z" fill="#f3b658"/></g><g><path d="m489.814 433.728h-468.159c-7.817 0-14.155-6.337-14.155-14.155v-10.84c0-7.817 6.337-14.155 14.155-14.155h468.159c7.817 0 14.155 6.337 14.155 14.155v10.84c0 7.818-6.338 14.155-14.155 14.155z" fill="#f3b658"/></g></g><path d="m489.814 387.079h-2.416v-80.816c0-53.854-20.076-105.326-56.529-144.936-2.805-3.046-7.549-3.245-10.598-.439-3.048 2.805-3.245 7.55-.439 10.598 33.897 36.833 52.566 84.698 52.566 134.778v80.816h-38.308v-23.791c0-2.91-1.683-5.557-4.318-6.792l-90.819-42.553v-195.701c21.086 7.353 40.665 18.167 58.317 32.233 1.381 1.101 3.03 1.635 4.669 1.635 2.205 0 4.39-.968 5.87-2.827 2.582-3.239 2.048-7.958-1.191-10.539-20.68-16.48-43.826-28.807-68.851-36.695-3.2-9.937-12.531-17.148-23.518-17.148-4.144 0-8.05 1.031-11.484 2.842-3.903-10.221-13.804-17.502-25.38-17.502h-43.305c-11.562 0-21.453 7.264-25.366 17.466-3.417-1.788-7.297-2.805-11.413-2.805-11.106 0-20.521 7.367-23.621 17.471-41.561 13.367-78.83 39.797-105.321 74.791-28.319 37.409-43.289 82.052-43.289 129.098v80.816h-3.416c-11.94 0-21.654 9.714-21.654 21.654v10.84c0 11.94 9.714 21.655 21.655 21.655h468.159c11.94 0 21.655-9.714 21.655-21.655v-10.84c0-11.94-9.715-21.654-21.655-21.654zm-175.564-287.178c5.351 0 9.704 4.353 9.704 9.703v197.311l-19.407-9.093v-188.218c0-5.35 4.353-9.703 9.703-9.703zm-274.18 206.362c0-43.751 13.918-85.263 40.251-120.047 23.431-30.951 55.92-54.69 92.279-67.635v38.17c0 4.142 3.358 7.5 7.5 7.5s7.5-3.358 7.5-7.5v-47.147c0-5.35 4.353-9.703 9.703-9.703 4.937 0 9.016 3.709 9.618 8.485v189.436l-19.321 9.053v-118.161c0-4.142-3.358-7.5-7.5-7.5s-7.5 3.358-7.5 7.5v125.19l-25.038 11.731c-3.751 1.757-5.367 6.223-3.609 9.974s6.224 5.365 9.974 3.609l60.99-28.576c3.724-1.745 6.294-5.274 6.879-9.277.133-.56.212-1.141.212-1.741l-.085-202.222c0-6.706 5.455-12.161 12.161-12.161h43.305c6.706 0 12.161 5.455 12.161 12.161v202.222c0 4.699 2.75 9.024 7.005 11.019l122.538 57.415v19.022h-326.715v-19.023l32.585-15.268c3.751-1.757 5.367-6.223 3.609-9.974-1.757-3.751-6.224-5.365-9.974-3.609l-36.903 17.291c-2.635 1.235-4.318 3.882-4.318 6.792v23.791h-37.307zm456.399 113.31c0 3.669-2.985 6.655-6.655 6.655h-468.159c-3.669 0-6.655-2.985-6.655-6.655v-10.84c0-3.669 2.985-6.654 6.655-6.654h468.159c3.669 0 6.655 2.985 6.655 6.654z"/></g></svg>